<?xml version="1.0" encoding="UTF-8" standalone="no"?>
<!-- Created with Inkscape (http://www.inkscape.org/) -->

<svg
   width="104.89907mm"
   height="61.241695mm"
   viewBox="0 0 104.89907 61.241695"
   version="1.1"
   id="svg1"
   xml:space="preserve"
   xmlns="http://www.w3.org/2000/svg"
   xmlns:svg="http://www.w3.org/2000/svg"><defs
     id="defs1" /><g
     id="g1"
     transform="matrix(0.26458333,0,0,0.26458334,161.34167,-48.238632)"><g
       id="g768"
       style="fill:#ffffff"><path
         style="fill:#ffffff;fill-opacity:1;stroke-width:0.999999"
         d="m -609.79529,412.18514 132.71316,-229.86592 h 149.50945 l -32.11457,55.62406 h -81.92122 l -14.67744,25.42208 h 80.29578 l -31.61964,54.76683 h -82.41611 l -54.46582,94.33759 z"
         id="path1" /><path
         style="fill:#ffffff;fill-opacity:1;stroke:none;stroke-width:0.999999"
         d="m -268.345,412.32857 h -66.22019 l -12.37354,-21.43158 h -102.49821 l -13.21374,22.88689 h -61.11503 l 43.07191,-74.60278 h 104.68469 l -15.76672,-20.55186 34.68677,-53.15634 z"
         id="path764" /><path
         style="fill:#ffffff;fill-opacity:1;stroke:none;stroke-width:0.637071"
         d="m -608.38686,410.43321 c 0.50484,-0.78838 30.10501,-52.03281 65.77815,-113.87651 35.67314,-61.84369 65.19111,-112.80264 65.59549,-113.24209 0.58304,-0.63362 16.0499,-0.76549 74.72286,-0.63707 l 73.98765,0.16193 -15.83374,27.39407 -15.83374,27.39407 -41.06909,0.16389 -41.0691,0.16389 -7.07636,12.3224 c -3.89199,6.77732 -7.07636,12.50672 -7.07636,12.73202 0,0.22529 17.90963,0.48343 39.79916,0.57367 l 39.79917,0.16405 -15.44779,26.757 -15.44778,26.75699 -41.39304,0.31854 -41.39303,0.31853 -27.07553,46.96878 -27.07554,46.96877 -32.40463,0.0152 -32.40464,0.0152 z"
         id="path765" /><g
         id="g767"
         transform="translate(-8)"
         style="fill:#ffffff"><path
           style="fill:#ffffff;fill-opacity:1;stroke-width:0.637071"
           d="m 612.16963,411.68813 c -1.71874,-1.15826 -7.06866,-9.96931 -26.40038,-43.48012 -13.33465,-23.11512 -24.61779,-43.31756 -25.07365,-44.89431 -2.15412,-7.45085 -7.58178,-17.04912 -14.33314,-25.3467 -2.19915,-2.7028 -7.51538,-11.00618 -11.81385,-18.45195 -4.29846,-7.44577 -7.96303,-13.53777 -8.14348,-13.53777 -0.18045,0 -4.54726,2.4368 -9.70403,5.41511 -9.4901,5.48103 -11.09026,6.05383 -12.90298,4.61876 -1.67436,-1.32552 -13.25319,-21.93099 -13.25319,-23.5851 0,-0.84755 0.50169,-1.9781 1.11487,-2.51234 0.61318,-0.53423 10.57538,-6.42072 22.13823,-13.08109 l 21.02335,-12.10976 14.11489,-0.76918 c 14.8983,-0.81187 16.04281,-0.68547 17.4405,1.92615 0.96299,1.79935 0.3076,2.9086 -9.48135,16.04717 -6.07964,8.15999 -9.0828,11.65518 -10.78975,12.55751 -1.30091,0.68769 -2.75546,1.51303 -3.23234,1.83409 -0.6802,0.45795 0.75216,3.38049 6.64708,13.56241 4.43057,7.65263 8.8656,16.30784 10.80744,21.09131 3.88426,9.56839 8.0672,16.75448 13.40554,23.03007 2.79833,3.28965 10.46554,15.95277 27.63041,45.63428 25.60257,44.27201 25.67452,44.42306 23.32463,48.96726 -2.27566,4.40063 -8.34611,5.89618 -12.5188,3.0842 z m 7.30582,-12.72221 c -2.50464,-4.95518 -19.1282,-34.89658 -32.2755,-58.13276 -7.42347,-13.12003 -12.93579,-22.08931 -15.46544,-25.16432 -6.37779,-7.75277 -11.0624,-15.85694 -14.85953,-25.70637 -1.693,-4.39146 -10.6309,-19.25067 -12.52489,-20.82254 -1.19867,-0.99481 0.6858,3.28369 5.2176,11.84605 1.88332,3.55832 4.09925,8.44575 4.9243,10.86094 3.39822,9.94777 8.42017,18.83586 14.71973,26.05167 1.88035,2.15385 7.72429,11.33106 13.38743,21.02336 9.01696,15.4323 32.58114,54.89898 36.42072,60.99958 2.17335,3.45318 2.42122,2.93324 0.45558,-0.95561 z M 504.46823,248.99577 c 4.43061,-2.33205 13.67307,-7.34899 20.5388,-11.14875 10.57119,-5.85051 12.91301,-6.90878 15.28971,-6.90944 4.52552,-0.001 19.95258,-1.93866 20.61271,-2.58865 0.37594,-0.37017 -4.22361,-0.59593 -12.14103,-0.59593 h -12.74626 l -7.97357,4.6532 c -4.38546,2.55926 -12.74406,7.62885 -18.57467,11.26576 -16.4585,10.26618 -18.47974,12.41586 -5.00569,5.32381 z"
           id="path766"
           transform="translate(-831.49611)" /><path
           style="fill:#ffffff;fill-opacity:1;stroke-width:0.637071"
           d="m 612.20304,411.70735 c -1.16718,-0.78838 -2.96409,-2.86682 -3.99314,-4.61877 -17.71299,-30.15645 -46.88884,-81.59492 -47.51702,-83.77488 -2.15914,-7.49278 -7.64998,-17.12156 -14.71334,-25.80139 -1.99594,-2.45272 -7.01601,-10.33648 -11.15571,-17.51946 -4.1397,-7.18298 -7.73524,-13.29869 -7.9901,-13.59046 -0.25485,-0.29177 -4.75669,1.93001 -10.00407,4.9373 -5.24739,3.00729 -10.09981,5.4678 -10.78317,5.4678 -0.68336,0 -1.7017,-0.35835 -2.26299,-0.79634 -1.66739,-1.3011 -13.23857,-21.91882 -13.23857,-23.58869 0,-0.84558 0.50169,-1.97559 1.11487,-2.51114 0.61318,-0.53555 10.57538,-6.43038 22.13823,-13.09962 l 21.02335,-12.12591 14.11489,-0.75064 c 14.89774,-0.79228 16.04414,-0.66445 17.4405,1.94468 0.96228,1.79804 0.31034,2.90566 -9.43079,16.02265 -6.15023,8.28162 -9.02082,11.62175 -10.79225,12.55751 -1.32734,0.70118 -2.789,1.52857 -3.24812,1.83866 -0.63756,0.4306 0.93231,3.63468 6.64505,13.56241 4.23321,7.35659 8.95126,16.58791 10.86988,21.26796 3.98199,9.71323 7.79315,16.2527 13.30476,22.82931 2.83938,3.38803 9.92613,15.0479 24.52264,40.3472 11.29105,19.57017 21.96118,38.01892 23.71138,40.99723 3.6689,6.24337 4.4387,9.99519 2.72911,13.30117 -2.26768,4.38521 -8.34959,5.89695 -12.48539,3.10342 z m 7.27241,-12.74143 c -2.50464,-4.95518 -19.1282,-34.89658 -32.2755,-58.13276 -7.42347,-13.12003 -12.93579,-22.08931 -15.46544,-25.16432 -6.37779,-7.75277 -11.0624,-15.85694 -14.85953,-25.70637 -1.693,-4.39146 -10.6309,-19.25067 -12.52489,-20.82254 -1.19867,-0.99481 0.6858,3.28369 5.2176,11.84605 1.88332,3.55832 4.09925,8.44575 4.9243,10.86094 3.39822,9.94777 8.42017,18.83586 14.71973,26.05167 1.88035,2.15385 7.72429,11.33106 13.38743,21.02336 9.01696,15.4323 32.58114,54.89898 36.42072,60.99958 2.17335,3.45318 2.42122,2.93324 0.45558,-0.95561 z M 504.46823,248.99577 c 4.43061,-2.33205 13.67307,-7.34899 20.5388,-11.14875 10.57119,-5.85051 12.91301,-6.90878 15.28971,-6.90944 4.52552,-0.001 19.95258,-1.93866 20.61271,-2.58865 0.37594,-0.37017 -4.22361,-0.59593 -12.14103,-0.59593 h -12.74626 l -7.97357,4.6532 c -4.38546,2.55926 -12.74406,7.62885 -18.57467,11.26576 -16.4585,10.26618 -18.47974,12.41586 -5.00569,5.32381 z"
           id="path767"
           transform="translate(-831.49611)" /><path
           id="path157"
           d="m -269.11454,222.9388 -26.68563,1.39985 c -0.70059,0.0219 -1.39342,0.2321 -2.00772,0.5837 l -41.37945,23.89349 c -2.13963,1.23532 -2.8722,3.96932 -1.63592,6.10533 l 11.5861,20.07302 c 1.23628,2.13601 3.97029,2.86859 6.10533,1.63592 l 18.05373,-10.42333 15.74799,27.28165 c 0.20511,0.34992 0.44692,0.67865 0.72113,0.97335 2.35447,2.4822 14.2553,15.63012 18.12794,31.27657 0.12778,0.46504 0.30462,0.91995 0.54223,1.3368 l 47.2867,81.90294 c 2.52895,4.38028 8.10921,6.09283 12.53356,3.64566 l 0.40404,-0.23327 c 4.32143,-2.59907 5.63857,-8.29689 3.10857,-12.67358 l -47.28573,-81.90655 c -0.24123,-0.41781 -0.5477,-0.79492 -0.89938,-1.13367 -11.60111,-11.18135 -17.03712,-28.06175 -18.02332,-31.33391 -0.10433,-0.39277 -0.2681,-0.76658 -0.4686,-1.11914 l -15.7526,-27.279 5.71182,-3.29772 c 0.53262,-0.30749 0.9941,-0.71168 1.35427,-1.20123 l 16.65966,-22.37055 c 2.25916,-3.04296 -0.0294,-7.33555 -3.80483,-7.13624"
           style="fill:#ffffff;fill-opacity:1;fill-rule:nonzero;stroke:none;stroke-width:0.374892" /><path
           id="path158"
           d="m -225.97733,374.19662 c -6.0718,-10.87191 -12.14266,-21.74744 -18.29713,-32.57164 -3.15927,-5.56216 -6.35069,-11.10578 -9.52735,-16.66095 -1.19965,-2.099 -2.24954,-4.61201 -3.93107,-6.38993 -7.8332,-8.28163 -13.41972,-18.27054 -17.39178,-28.92527 -0.4682,-1.251 -0.79745,-2.6006 -1.44976,-3.77286 -1.33547,-2.4032 -2.91905,-4.70603 -4.39878,-7.01981 -2.14959,-3.36269 -4.32742,-6.72127 -6.61863,-9.98993 2.86732,6.15926 6.06179,12.16944 9.27588,18.14991 0.0235,0.0566 0.17979,0.50227 0.0962,0.23535 2.02638,6.41521 4.3443,12.58249 7.68481,18.45324 2.03584,3.58447 4.34953,7.02994 6.98425,10.20434 1.05621,1.2727 2.1523,2.49789 3.31657,3.67148 0.30225,0.30599 0.61002,0.6059 0.91127,0.91562 0.0698,0.0732 0.27003,0.32473 0.32192,0.37735 0.68326,0.95543 1.21006,2.07464 1.79686,3.08572 2.12488,3.64326 4.24972,7.2865 6.3736,10.93339 13.13883,22.53444 26.47221,44.96576 40.14655,67.18182 -5.04298,-9.32319 -10.12271,-18.6252 -15.29329,-27.87781"
           style="fill:#ffffff;fill-opacity:1;fill-rule:nonzero;stroke:none;stroke-width:0.374892" /><path
           id="path160"
           d="m -281.82171,227.93668 c -2.73994,-6.2e-4 -5.48333,0.0405 -8.22219,0.13723 -2.17277,0.0698 -4.75755,-0.23463 -6.70259,0.83937 -4.72909,2.61402 -9.34038,5.4692 -13.97767,8.24754 -8.48357,5.08167 -16.88067,10.31847 -25.09238,15.83395 4.40494,-2.15753 8.76943,-4.39574 13.10933,-6.68712 4.92154,-2.5935 9.80427,-5.2595 14.66316,-7.96683 2.49046,-1.38584 4.97199,-2.78181 7.44558,-4.19157 1.19546,-0.68103 2.39093,-1.36205 3.5864,-2.04306 0.63168,-0.35859 1.35902,-0.94381 2.06298,-1.16659 1.05763,-0.32596 2.48271,-0.16921 3.58884,-0.24154 1.32637,-0.0832 2.652,-0.17819 3.97794,-0.28865 2.64167,-0.212 5.28774,-0.4694 7.92275,-0.77247 2.95674,-0.34492 5.91983,-0.74249 8.84302,-1.30987 -3.72025,-0.3254 -7.47221,-0.38761 -11.20517,-0.39039"
           style="fill:#ffffff;fill-opacity:1;fill-rule:nonzero;stroke:none;stroke-width:0.374892" /></g></g></g></svg>
